<svg xmlns="http://www.w3.org/2000/svg" xmlns:xlink="http://www.w3.org/1999/xlink" style="margin:auto;background:rgba(255, 255, 255, 0);display:block;z-index:1;position:relative" width="1084" height="322" preserveAspectRatio="xMidYMid" viewBox="0 0 1084 322">
<defs>
  <pattern id="pid-0.39848199502375414" x="0" y="0" width="284.16" height="284.16" patternUnits="userSpaceOnUse">
    <g transform="scale(1.11)"><g transform="translate(236.048 0)">
<path d="M94.6,56.2c-1-4.2-3.7-7.6-7.2-9.5c1.6-1.7,2.7-4.1,2.7-6.7c0-5.4-4.4-9.7-9.7-9.7c-3.2,0-6.1,1.6-7.8,4 c-2.5-4.5-7.3-7.6-12.8-7.6c-3.4,0-6.4,1.1-8.9,3.1c-2.4-4.7-7.3-7.9-13-7.9c-5.6,0-10.5,3.2-12.9,7.8c-1.3-0.3-2.7-0.6-4.1-0.6 C12.1,29.1,5,36.1,5,44.9c0,6,3.4,11.3,8.3,13.9c-0.2,1.3-0.2,2.6,0.1,3.9c1.2,5.3,6.5,8.6,11.8,7.4c0.3-0.1,0.6-0.1,0.8-0.2 c2.9,6,9.6,9.5,16.4,8c5.5-1.3,9.6-5.5,10.9-10.6c2.8,1.3,6.1,1.7,9.4,1c1.8-0.4,3.4-1.1,4.8-2.1c3,5.7,9.6,9,16.2,7.5 C91.5,71.9,96.4,64,94.6,56.2z" fill="#55bedb" transform="translate(289.998352751182, 3.7063985213388833) scale(0.4066666666666667) translate(-36, -24)"></path>
  <animateTransform attributeName="transform" type="translate" keyTimes="0;1" repeatCount="indefinite" dur="16.666666666666664s" values="0;256"></animateTransform>
</g><g transform="translate(236.048 0)">
<path d="M94.6,56.2c-1-4.2-3.7-7.6-7.2-9.5c1.6-1.7,2.7-4.1,2.7-6.7c0-5.4-4.4-9.7-9.7-9.7c-3.2,0-6.1,1.6-7.8,4 c-2.5-4.5-7.3-7.6-12.8-7.6c-3.4,0-6.4,1.1-8.9,3.1c-2.4-4.7-7.3-7.9-13-7.9c-5.6,0-10.5,3.2-12.9,7.8c-1.3-0.3-2.7-0.6-4.1-0.6 C12.1,29.1,5,36.1,5,44.9c0,6,3.4,11.3,8.3,13.9c-0.2,1.3-0.2,2.6,0.1,3.9c1.2,5.3,6.5,8.6,11.8,7.4c0.3-0.1,0.6-0.1,0.8-0.2 c2.9,6,9.6,9.5,16.4,8c5.5-1.3,9.6-5.5,10.9-10.6c2.8,1.3,6.1,1.7,9.4,1c1.8-0.4,3.4-1.1,4.8-2.1c3,5.7,9.6,9,16.2,7.5 C91.5,71.9,96.4,64,94.6,56.2z" fill="#55bedb" transform="translate(289.998352751182, 259.7063985213389) scale(0.4066666666666667) translate(-36, -24)"></path>
  <animateTransform attributeName="transform" type="translate" keyTimes="0;1" repeatCount="indefinite" dur="16.666666666666664s" values="0;256"></animateTransform>
</g><g transform="translate(236.048 0)">
<path d="M94.6,56.2c-1-4.2-3.7-7.6-7.2-9.5c1.6-1.7,2.7-4.1,2.7-6.7c0-5.4-4.4-9.7-9.7-9.7c-3.2,0-6.1,1.6-7.8,4 c-2.5-4.5-7.3-7.6-12.8-7.6c-3.4,0-6.4,1.1-8.9,3.1c-2.4-4.7-7.3-7.9-13-7.9c-5.6,0-10.5,3.2-12.9,7.8c-1.3-0.3-2.7-0.6-4.1-0.6 C12.1,29.1,5,36.1,5,44.9c0,6,3.4,11.3,8.3,13.9c-0.2,1.3-0.2,2.6,0.1,3.9c1.2,5.3,6.5,8.6,11.8,7.4c0.3-0.1,0.6-0.1,0.8-0.2 c2.9,6,9.6,9.5,16.4,8c5.5-1.3,9.6-5.5,10.9-10.6c2.8,1.3,6.1,1.7,9.4,1c1.8-0.4,3.4-1.1,4.8-2.1c3,5.7,9.6,9,16.2,7.5 C91.5,71.9,96.4,64,94.6,56.2z" fill="#55bedb" transform="translate(33.99835275118198, 3.7063985213388833) scale(0.4066666666666667) translate(-36, -24)"></path>
  <animateTransform attributeName="transform" type="translate" keyTimes="0;1" repeatCount="indefinite" dur="16.666666666666664s" values="0;256"></animateTransform>
</g><g transform="translate(236.048 0)">
<path d="M94.6,56.2c-1-4.2-3.7-7.6-7.2-9.5c1.6-1.7,2.7-4.1,2.7-6.7c0-5.4-4.4-9.7-9.7-9.7c-3.2,0-6.1,1.6-7.8,4 c-2.5-4.5-7.3-7.6-12.8-7.6c-3.4,0-6.4,1.1-8.9,3.1c-2.4-4.7-7.3-7.9-13-7.9c-5.6,0-10.5,3.2-12.9,7.8c-1.3-0.3-2.7-0.6-4.1-0.6 C12.1,29.1,5,36.1,5,44.9c0,6,3.4,11.3,8.3,13.9c-0.2,1.3-0.2,2.6,0.1,3.9c1.2,5.3,6.5,8.6,11.8,7.4c0.3-0.1,0.6-0.1,0.8-0.2 c2.9,6,9.6,9.5,16.4,8c5.5-1.3,9.6-5.5,10.9-10.6c2.8,1.3,6.1,1.7,9.4,1c1.8-0.4,3.4-1.1,4.8-2.1c3,5.7,9.6,9,16.2,7.5 C91.5,71.9,96.4,64,94.6,56.2z" fill="#55bedb" transform="translate(33.99835275118198, 259.7063985213389) scale(0.4066666666666667) translate(-36, -24)"></path>
  <animateTransform attributeName="transform" type="translate" keyTimes="0;1" repeatCount="indefinite" dur="16.666666666666664s" values="0;256"></animateTransform>
</g><g transform="translate(236.048 0)">
<path d="M94.6,56.2c-1-4.2-3.7-7.6-7.2-9.5c1.6-1.7,2.7-4.1,2.7-6.7c0-5.4-4.4-9.7-9.7-9.7c-3.2,0-6.1,1.6-7.8,4 c-2.5-4.5-7.3-7.6-12.8-7.6c-3.4,0-6.4,1.1-8.9,3.1c-2.4-4.7-7.3-7.9-13-7.9c-5.6,0-10.5,3.2-12.9,7.8c-1.3-0.3-2.7-0.6-4.1-0.6 C12.1,29.1,5,36.1,5,44.9c0,6,3.4,11.3,8.3,13.9c-0.2,1.3-0.2,2.6,0.1,3.9c1.2,5.3,6.5,8.6,11.8,7.4c0.3-0.1,0.6-0.1,0.8-0.2 c2.9,6,9.6,9.5,16.4,8c5.5-1.3,9.6-5.5,10.9-10.6c2.8,1.3,6.1,1.7,9.4,1c1.8-0.4,3.4-1.1,4.8-2.1c3,5.7,9.6,9,16.2,7.5 C91.5,71.9,96.4,64,94.6,56.2z" fill="#55bedb" transform="translate(-222.00164724881802, 3.7063985213388833) scale(0.4066666666666667) translate(-36, -24)"></path>
  <animateTransform attributeName="transform" type="translate" keyTimes="0;1" repeatCount="indefinite" dur="16.666666666666664s" values="0;256"></animateTransform>
</g><g transform="translate(236.048 0)">
<path d="M94.6,56.2c-1-4.2-3.7-7.6-7.2-9.5c1.6-1.7,2.7-4.1,2.7-6.7c0-5.4-4.4-9.7-9.7-9.7c-3.2,0-6.1,1.6-7.8,4 c-2.5-4.5-7.3-7.6-12.8-7.6c-3.4,0-6.4,1.1-8.9,3.1c-2.4-4.7-7.3-7.9-13-7.9c-5.6,0-10.5,3.2-12.9,7.8c-1.3-0.3-2.7-0.6-4.1-0.6 C12.1,29.1,5,36.1,5,44.9c0,6,3.4,11.3,8.3,13.9c-0.2,1.3-0.2,2.6,0.1,3.9c1.2,5.3,6.5,8.6,11.8,7.4c0.3-0.1,0.6-0.1,0.8-0.2 c2.9,6,9.6,9.5,16.4,8c5.5-1.3,9.6-5.5,10.9-10.6c2.8,1.3,6.1,1.7,9.4,1c1.8-0.4,3.4-1.1,4.8-2.1c3,5.7,9.6,9,16.2,7.5 C91.5,71.9,96.4,64,94.6,56.2z" fill="#55bedb" transform="translate(-222.00164724881802, 259.7063985213389) scale(0.4066666666666667) translate(-36, -24)"></path>
  <animateTransform attributeName="transform" type="translate" keyTimes="0;1" repeatCount="indefinite" dur="16.666666666666664s" values="0;256"></animateTransform>
</g><g transform="translate(236.048 0)">
<path d="M85.3,55.6c0.3-1.1,0.5-2.2,0.6-3.4c0.5-8.5-6-15.7-14.5-16.2c-2.1-0.1-4.2,0.2-6,0.9c-1.5-8.9-9-16-18.4-16.5 C36.1,19.7,26.8,28,26.2,38.9c-0.1,1.1,0,2.3,0.1,3.3c-6.3,0.1-11.6,5-11.9,11.4c0,0.8,0,1.5,0.1,2.2c-0.3,0-0.5-0.1-0.8-0.1 C9.2,55.6,5.3,59,5,63.6s3.2,8.4,7.8,8.7c0.8,0,1.5,0,2.2-0.2c2.5,2.9,8,5.1,14.6,5.5c3.7,0.2,7.2-0.2,10-1.1 c1.7,1.8,4.3,3.1,7.3,3.2c4,0.2,7.5-1.6,9.3-4.3c2.1,1,4.6,1.7,7.4,1.9c4.5,0.3,8.6-1,11.1-3c2,1.7,4.6,2.8,7.6,3 C89,77.6,94.6,73,95,67C95.3,61.5,91.1,56.7,85.3,55.6z" fill="#55bedb" transform="translate(275.34549535211727, 100.97239542950854) scale(0.4066666666666667) translate(-36, -24)"></path>
  <animateTransform attributeName="transform" type="translate" keyTimes="0;1" repeatCount="indefinite" dur="16.666666666666664s" values="0;256"></animateTransform>
</g><g transform="translate(236.048 0)">
<path d="M85.3,55.6c0.3-1.1,0.5-2.2,0.6-3.4c0.5-8.5-6-15.7-14.5-16.2c-2.1-0.1-4.2,0.2-6,0.9c-1.5-8.9-9-16-18.4-16.5 C36.1,19.7,26.8,28,26.2,38.9c-0.1,1.1,0,2.3,0.1,3.3c-6.3,0.1-11.6,5-11.9,11.4c0,0.8,0,1.5,0.1,2.2c-0.3,0-0.5-0.1-0.8-0.1 C9.2,55.6,5.3,59,5,63.6s3.2,8.4,7.8,8.7c0.8,0,1.5,0,2.2-0.2c2.5,2.9,8,5.1,14.6,5.5c3.7,0.2,7.2-0.2,10-1.1 c1.7,1.8,4.3,3.1,7.3,3.2c4,0.2,7.5-1.6,9.3-4.3c2.1,1,4.6,1.7,7.4,1.9c4.5,0.3,8.6-1,11.1-3c2,1.7,4.6,2.8,7.6,3 C89,77.6,94.6,73,95,67C95.3,61.5,91.1,56.7,85.3,55.6z" fill="#55bedb" transform="translate(19.34549535211727, 100.97239542950854) scale(0.4066666666666667) translate(-36, -24)"></path>
  <animateTransform attributeName="transform" type="translate" keyTimes="0;1" repeatCount="indefinite" dur="16.666666666666664s" values="0;256"></animateTransform>
</g><g transform="translate(236.048 0)">
<path d="M85.3,55.6c0.3-1.1,0.5-2.2,0.6-3.4c0.5-8.5-6-15.7-14.5-16.2c-2.1-0.1-4.2,0.2-6,0.9c-1.5-8.9-9-16-18.4-16.5 C36.1,19.7,26.8,28,26.2,38.9c-0.1,1.1,0,2.3,0.1,3.3c-6.3,0.1-11.6,5-11.9,11.4c0,0.8,0,1.5,0.1,2.2c-0.3,0-0.5-0.1-0.8-0.1 C9.2,55.6,5.3,59,5,63.6s3.2,8.4,7.8,8.7c0.8,0,1.5,0,2.2-0.2c2.5,2.9,8,5.1,14.6,5.5c3.7,0.2,7.2-0.2,10-1.1 c1.7,1.8,4.3,3.1,7.3,3.2c4,0.2,7.5-1.6,9.3-4.3c2.1,1,4.6,1.7,7.4,1.9c4.5,0.3,8.6-1,11.1-3c2,1.7,4.6,2.8,7.6,3 C89,77.6,94.6,73,95,67C95.3,61.5,91.1,56.7,85.3,55.6z" fill="#55bedb" transform="translate(-236.65450464788273, 100.97239542950854) scale(0.4066666666666667) translate(-36, -24)"></path>
  <animateTransform attributeName="transform" type="translate" keyTimes="0;1" repeatCount="indefinite" dur="16.666666666666664s" values="0;256"></animateTransform>
</g><g transform="translate(236.048 0)">
<path d="M95,62.4c-0.5-5.9-5.7-10.3-11.9-10.5c0-0.6,0-1.2,0-1.8c-0.7-7.6-7.9-13.1-16.1-12.4c-0.9,0.1-1.9,0.3-2.7,0.5 c0-0.1,0-0.2,0-0.2c-1-10.9-10.7-19-21.6-18c-9.8,0.9-17.3,8.8-18,18.3C12.8,39.5,4.1,49.2,5.1,60C6.1,71,16.5,79,28.4,77.9 c3.4-0.3,6.4-1.3,9.2-2.8c5,3.7,12.4,5.7,20.5,4.9c6.9-0.6,13.1-3.2,17.3-6.8c2.3,1.4,5.2,2.2,8.2,1.9C90.4,74.4,95.5,68.8,95,62.4z" fill="#55bedb" transform="translate(142.92983929006493, 68.02129150362708) scale(0.4066666666666667) translate(-36, -24)"></path>
  <animateTransform attributeName="transform" type="translate" keyTimes="0;1" repeatCount="indefinite" dur="16.666666666666664s" values="0;256"></animateTransform>
</g><g transform="translate(236.048 0)">
<path d="M95,62.4c-0.5-5.9-5.7-10.3-11.9-10.5c0-0.6,0-1.2,0-1.8c-0.7-7.6-7.9-13.1-16.1-12.4c-0.9,0.1-1.9,0.3-2.7,0.5 c0-0.1,0-0.2,0-0.2c-1-10.9-10.7-19-21.6-18c-9.8,0.9-17.3,8.8-18,18.3C12.8,39.5,4.1,49.2,5.1,60C6.1,71,16.5,79,28.4,77.9 c3.4-0.3,6.4-1.3,9.2-2.8c5,3.7,12.4,5.7,20.5,4.9c6.9-0.6,13.1-3.2,17.3-6.8c2.3,1.4,5.2,2.2,8.2,1.9C90.4,74.4,95.5,68.8,95,62.4z" fill="#55bedb" transform="translate(-113.07016070993507, 68.02129150362708) scale(0.4066666666666667) translate(-36, -24)"></path>
  <animateTransform attributeName="transform" type="translate" keyTimes="0;1" repeatCount="indefinite" dur="16.666666666666664s" values="0;256"></animateTransform>
</g><g transform="translate(236.048 0)">
<path d="M95,62.1c0-7.9-5.6-14.5-13.1-15.9C82,45.4,82,44.7,82,44c0-12.3-10-22.3-22.3-22.3c-9.5,0-17.7,6-20.8,14.4 c-1.2-0.3-2.4-0.5-3.7-0.5c-7.6,0-13.8,5.9-14.3,13.3c-0.9-0.2-1.9-0.3-2.8-0.3c-7.2,0-13,5.8-13,13c0,4.8,2.6,9,6.5,11.2 c0,0.1,0,0.1,0,0.2c0,4.7,3.8,8.5,8.5,8.5c2.7,0,5.1-1.3,6.7-3.2c0.1,0,0.2,0,0.3,0h10.4c2.4,2,5.4,3.2,8.7,3.2s6.4-1.2,8.7-3.2h0.2 c3.3,3.8,8.2,6.2,13.6,6.2c5.6,0,10.7-2.6,14-6.6C89.6,76.2,95,69.8,95,62.1z" fill="#55bedb" transform="translate(179.4718772861292, 170.87940569077273) scale(0.4066666666666667) translate(-36, -24)"></path>
  <animateTransform attributeName="transform" type="translate" keyTimes="0;1" repeatCount="indefinite" dur="16.666666666666664s" values="0;256"></animateTransform>
</g><g transform="translate(236.048 0)">
<path d="M95,62.1c0-7.9-5.6-14.5-13.1-15.9C82,45.4,82,44.7,82,44c0-12.3-10-22.3-22.3-22.3c-9.5,0-17.7,6-20.8,14.4 c-1.2-0.3-2.4-0.5-3.7-0.5c-7.6,0-13.8,5.9-14.3,13.3c-0.9-0.2-1.9-0.3-2.8-0.3c-7.2,0-13,5.8-13,13c0,4.8,2.6,9,6.5,11.2 c0,0.1,0,0.1,0,0.2c0,4.7,3.8,8.5,8.5,8.5c2.7,0,5.1-1.3,6.7-3.2c0.1,0,0.2,0,0.3,0h10.4c2.4,2,5.4,3.2,8.7,3.2s6.4-1.2,8.7-3.2h0.2 c3.3,3.8,8.2,6.2,13.6,6.2c5.6,0,10.7-2.6,14-6.6C89.6,76.2,95,69.8,95,62.1z" fill="#55bedb" transform="translate(-76.5281227138708, 170.87940569077273) scale(0.4066666666666667) translate(-36, -24)"></path>
  <animateTransform attributeName="transform" type="translate" keyTimes="0;1" repeatCount="indefinite" dur="16.666666666666664s" values="0;256"></animateTransform>
</g><g transform="translate(216.095 0)">
<path d="M94.6,56.2c-1-4.2-3.7-7.6-7.2-9.5c1.6-1.7,2.7-4.1,2.7-6.7c0-5.4-4.4-9.7-9.7-9.7c-3.2,0-6.1,1.6-7.8,4 c-2.5-4.5-7.3-7.6-12.8-7.6c-3.4,0-6.4,1.1-8.9,3.1c-2.4-4.7-7.3-7.9-13-7.9c-5.6,0-10.5,3.2-12.9,7.8c-1.3-0.3-2.7-0.6-4.1-0.6 C12.1,29.1,5,36.1,5,44.9c0,6,3.4,11.3,8.3,13.9c-0.2,1.3-0.2,2.6,0.1,3.9c1.2,5.3,6.5,8.6,11.8,7.4c0.3-0.1,0.6-0.1,0.8-0.2 c2.9,6,9.6,9.5,16.4,8c5.5-1.3,9.6-5.5,10.9-10.6c2.8,1.3,6.1,1.7,9.4,1c1.8-0.4,3.4-1.1,4.8-2.1c3,5.7,9.6,9,16.2,7.5 C91.5,71.9,96.4,64,94.6,56.2z" fill="#90ddf0" transform="translate(80.26697657896187, 91.25502418181742) scale(0.5083333333333333) translate(-36, -24)"></path>
  <animateTransform attributeName="transform" type="translate" keyTimes="0;1" repeatCount="indefinite" dur="8.333333333333332s" values="0;256"></animateTransform>
</g><g transform="translate(216.095 0)">
<path d="M94.6,56.2c-1-4.2-3.7-7.6-7.2-9.5c1.6-1.7,2.7-4.1,2.7-6.7c0-5.4-4.4-9.7-9.7-9.7c-3.2,0-6.1,1.6-7.8,4 c-2.5-4.5-7.3-7.6-12.8-7.6c-3.4,0-6.4,1.1-8.9,3.1c-2.4-4.7-7.3-7.9-13-7.9c-5.6,0-10.5,3.2-12.9,7.8c-1.3-0.3-2.7-0.6-4.1-0.6 C12.1,29.1,5,36.1,5,44.9c0,6,3.4,11.3,8.3,13.9c-0.2,1.3-0.2,2.6,0.1,3.9c1.2,5.3,6.5,8.6,11.8,7.4c0.3-0.1,0.6-0.1,0.8-0.2 c2.9,6,9.6,9.5,16.4,8c5.5-1.3,9.6-5.5,10.9-10.6c2.8,1.3,6.1,1.7,9.4,1c1.8-0.4,3.4-1.1,4.8-2.1c3,5.7,9.6,9,16.2,7.5 C91.5,71.9,96.4,64,94.6,56.2z" fill="#90ddf0" transform="translate(-175.73302342103813, 91.25502418181742) scale(0.5083333333333333) translate(-36, -24)"></path>
  <animateTransform attributeName="transform" type="translate" keyTimes="0;1" repeatCount="indefinite" dur="8.333333333333332s" values="0;256"></animateTransform>
</g><g transform="translate(216.095 0)">
<path d="M85.3,55.6c0.3-1.1,0.5-2.2,0.6-3.4c0.5-8.5-6-15.7-14.5-16.2c-2.1-0.1-4.2,0.2-6,0.9c-1.5-8.9-9-16-18.4-16.5 C36.1,19.7,26.8,28,26.2,38.9c-0.1,1.1,0,2.3,0.1,3.3c-6.3,0.1-11.6,5-11.9,11.4c0,0.8,0,1.5,0.1,2.2c-0.3,0-0.5-0.1-0.8-0.1 C9.2,55.6,5.3,59,5,63.6s3.2,8.4,7.8,8.7c0.8,0,1.5,0,2.2-0.2c2.5,2.9,8,5.1,14.6,5.5c3.7,0.2,7.2-0.2,10-1.1 c1.7,1.8,4.3,3.1,7.3,3.2c4,0.2,7.5-1.6,9.3-4.3c2.1,1,4.6,1.7,7.4,1.9c4.5,0.3,8.6-1,11.1-3c2,1.7,4.6,2.8,7.6,3 C89,77.6,94.6,73,95,67C95.3,61.5,91.1,56.7,85.3,55.6z" fill="#90ddf0" transform="translate(48.015998244773414, 193.3506062164193) scale(0.5083333333333333) translate(-36, -24)"></path>
  <animateTransform attributeName="transform" type="translate" keyTimes="0;1" repeatCount="indefinite" dur="8.333333333333332s" values="0;256"></animateTransform>
</g><g transform="translate(216.095 0)">
<path d="M85.3,55.6c0.3-1.1,0.5-2.2,0.6-3.4c0.5-8.5-6-15.7-14.5-16.2c-2.1-0.1-4.2,0.2-6,0.9c-1.5-8.9-9-16-18.4-16.5 C36.1,19.7,26.8,28,26.2,38.9c-0.1,1.1,0,2.3,0.1,3.3c-6.3,0.1-11.6,5-11.9,11.4c0,0.8,0,1.5,0.1,2.2c-0.3,0-0.5-0.1-0.8-0.1 C9.2,55.6,5.3,59,5,63.6s3.2,8.4,7.8,8.7c0.8,0,1.5,0,2.2-0.2c2.5,2.9,8,5.1,14.6,5.5c3.7,0.2,7.2-0.2,10-1.1 c1.7,1.8,4.3,3.1,7.3,3.2c4,0.2,7.5-1.6,9.3-4.3c2.1,1,4.6,1.7,7.4,1.9c4.5,0.3,8.6-1,11.1-3c2,1.7,4.6,2.8,7.6,3 C89,77.6,94.6,73,95,67C95.3,61.5,91.1,56.7,85.3,55.6z" fill="#90ddf0" transform="translate(-207.9840017552266, 193.3506062164193) scale(0.5083333333333333) translate(-36, -24)"></path>
  <animateTransform attributeName="transform" type="translate" keyTimes="0;1" repeatCount="indefinite" dur="8.333333333333332s" values="0;256"></animateTransform>
</g><g transform="translate(216.095 0)">
<path d="M95,62.4c-0.5-5.9-5.7-10.3-11.9-10.5c0-0.6,0-1.2,0-1.8c-0.7-7.6-7.9-13.1-16.1-12.4c-0.9,0.1-1.9,0.3-2.7,0.5 c0-0.1,0-0.2,0-0.2c-1-10.9-10.7-19-21.6-18c-9.8,0.9-17.3,8.8-18,18.3C12.8,39.5,4.1,49.2,5.1,60C6.1,71,16.5,79,28.4,77.9 c3.4-0.3,6.4-1.3,9.2-2.8c5,3.7,12.4,5.7,20.5,4.9c6.9-0.6,13.1-3.2,17.3-6.8c2.3,1.4,5.2,2.2,8.2,1.9C90.4,74.4,95.5,68.8,95,62.4z" fill="#90ddf0" transform="translate(83.29246927401795, 214.87433681474704) scale(0.5083333333333333) translate(-36, -24)"></path>
  <animateTransform attributeName="transform" type="translate" keyTimes="0;1" repeatCount="indefinite" dur="8.333333333333332s" values="0;256"></animateTransform>
</g><g transform="translate(216.095 0)">
<path d="M95,62.4c-0.5-5.9-5.7-10.3-11.9-10.5c0-0.6,0-1.2,0-1.8c-0.7-7.6-7.9-13.1-16.1-12.4c-0.9,0.1-1.9,0.3-2.7,0.5 c0-0.1,0-0.2,0-0.2c-1-10.9-10.7-19-21.6-18c-9.8,0.9-17.3,8.8-18,18.3C12.8,39.5,4.1,49.2,5.1,60C6.1,71,16.5,79,28.4,77.9 c3.4-0.3,6.4-1.3,9.2-2.8c5,3.7,12.4,5.7,20.5,4.9c6.9-0.6,13.1-3.2,17.3-6.8c2.3,1.4,5.2,2.2,8.2,1.9C90.4,74.4,95.5,68.8,95,62.4z" fill="#90ddf0" transform="translate(83.29246927401795, -41.12566318525296) scale(0.5083333333333333) translate(-36, -24)"></path>
  <animateTransform attributeName="transform" type="translate" keyTimes="0;1" repeatCount="indefinite" dur="8.333333333333332s" values="0;256"></animateTransform>
</g><g transform="translate(216.095 0)">
<path d="M95,62.4c-0.5-5.9-5.7-10.3-11.9-10.5c0-0.6,0-1.2,0-1.8c-0.7-7.6-7.9-13.1-16.1-12.4c-0.9,0.1-1.9,0.3-2.7,0.5 c0-0.1,0-0.2,0-0.2c-1-10.9-10.7-19-21.6-18c-9.8,0.9-17.3,8.8-18,18.3C12.8,39.5,4.1,49.2,5.1,60C6.1,71,16.5,79,28.4,77.9 c3.4-0.3,6.4-1.3,9.2-2.8c5,3.7,12.4,5.7,20.5,4.9c6.9-0.6,13.1-3.2,17.3-6.8c2.3,1.4,5.2,2.2,8.2,1.9C90.4,74.4,95.5,68.8,95,62.4z" fill="#90ddf0" transform="translate(-172.70753072598205, 214.87433681474704) scale(0.5083333333333333) translate(-36, -24)"></path>
  <animateTransform attributeName="transform" type="translate" keyTimes="0;1" repeatCount="indefinite" dur="8.333333333333332s" values="0;256"></animateTransform>
</g><g transform="translate(216.095 0)">
<path d="M95,62.4c-0.5-5.9-5.7-10.3-11.9-10.5c0-0.6,0-1.2,0-1.8c-0.7-7.6-7.9-13.1-16.1-12.4c-0.9,0.1-1.9,0.3-2.7,0.5 c0-0.1,0-0.2,0-0.2c-1-10.9-10.7-19-21.6-18c-9.8,0.9-17.3,8.8-18,18.3C12.8,39.5,4.1,49.2,5.1,60C6.1,71,16.5,79,28.4,77.9 c3.4-0.3,6.4-1.3,9.2-2.8c5,3.7,12.4,5.7,20.5,4.9c6.9-0.6,13.1-3.2,17.3-6.8c2.3,1.4,5.2,2.2,8.2,1.9C90.4,74.4,95.5,68.8,95,62.4z" fill="#90ddf0" transform="translate(-172.70753072598205, -41.12566318525296) scale(0.5083333333333333) translate(-36, -24)"></path>
  <animateTransform attributeName="transform" type="translate" keyTimes="0;1" repeatCount="indefinite" dur="8.333333333333332s" values="0;256"></animateTransform>
</g><g transform="translate(216.095 0)">
<path d="M95,62.1c0-7.9-5.6-14.5-13.1-15.9C82,45.4,82,44.7,82,44c0-12.3-10-22.3-22.3-22.3c-9.5,0-17.7,6-20.8,14.4 c-1.2-0.3-2.4-0.5-3.7-0.5c-7.6,0-13.8,5.9-14.3,13.3c-0.9-0.2-1.9-0.3-2.8-0.3c-7.2,0-13,5.8-13,13c0,4.8,2.6,9,6.5,11.2 c0,0.1,0,0.1,0,0.2c0,4.7,3.8,8.5,8.5,8.5c2.7,0,5.1-1.3,6.7-3.2c0.1,0,0.2,0,0.3,0h10.4c2.4,2,5.4,3.2,8.7,3.2s6.4-1.2,8.7-3.2h0.2 c3.3,3.8,8.2,6.2,13.6,6.2c5.6,0,10.7-2.6,14-6.6C89.6,76.2,95,69.8,95,62.1z" fill="#90ddf0" transform="translate(190.99222510088885, 79.12833106574641) scale(0.5083333333333333) translate(-36, -24)"></path>
  <animateTransform attributeName="transform" type="translate" keyTimes="0;1" repeatCount="indefinite" dur="8.333333333333332s" values="0;256"></animateTransform>
</g><g transform="translate(216.095 0)">
<path d="M95,62.1c0-7.9-5.6-14.5-13.1-15.9C82,45.4,82,44.7,82,44c0-12.3-10-22.3-22.3-22.3c-9.5,0-17.7,6-20.8,14.4 c-1.2-0.3-2.4-0.5-3.7-0.5c-7.6,0-13.8,5.9-14.3,13.3c-0.9-0.2-1.9-0.3-2.8-0.3c-7.2,0-13,5.8-13,13c0,4.8,2.6,9,6.5,11.2 c0,0.1,0,0.1,0,0.2c0,4.7,3.8,8.5,8.5,8.5c2.7,0,5.1-1.3,6.7-3.2c0.1,0,0.2,0,0.3,0h10.4c2.4,2,5.4,3.2,8.7,3.2s6.4-1.2,8.7-3.2h0.2 c3.3,3.8,8.2,6.2,13.6,6.2c5.6,0,10.7-2.6,14-6.6C89.6,76.2,95,69.8,95,62.1z" fill="#90ddf0" transform="translate(-65.00777489911115, 79.12833106574641) scale(0.5083333333333333) translate(-36, -24)"></path>
  <animateTransform attributeName="transform" type="translate" keyTimes="0;1" repeatCount="indefinite" dur="8.333333333333332s" values="0;256"></animateTransform>
</g><g transform="translate(196.143 0)">
<path d="M94.6,56.2c-1-4.2-3.7-7.6-7.2-9.5c1.6-1.7,2.7-4.1,2.7-6.7c0-5.4-4.4-9.7-9.7-9.7c-3.2,0-6.1,1.6-7.8,4 c-2.5-4.5-7.3-7.6-12.8-7.6c-3.4,0-6.4,1.1-8.9,3.1c-2.4-4.7-7.3-7.9-13-7.9c-5.6,0-10.5,3.2-12.9,7.8c-1.3-0.3-2.7-0.6-4.1-0.6 C12.1,29.1,5,36.1,5,44.9c0,6,3.4,11.3,8.3,13.9c-0.2,1.3-0.2,2.6,0.1,3.9c1.2,5.3,6.5,8.6,11.8,7.4c0.3-0.1,0.6-0.1,0.8-0.2 c2.9,6,9.6,9.5,16.4,8c5.5-1.3,9.6-5.5,10.9-10.6c2.8,1.3,6.1,1.7,9.4,1c1.8-0.4,3.4-1.1,4.8-2.1c3,5.7,9.6,9,16.2,7.5 C91.5,71.9,96.4,64,94.6,56.2z" fill="#afecf6" transform="translate(91.71181230647483, 68.48581897221425) scale(0.61) translate(-36, -24)"></path>
  <animateTransform attributeName="transform" type="translate" keyTimes="0;1" repeatCount="indefinite" dur="5.5555555555555545s" values="0;256"></animateTransform>
</g><g transform="translate(196.143 0)">
<path d="M94.6,56.2c-1-4.2-3.7-7.6-7.2-9.5c1.6-1.7,2.7-4.1,2.7-6.7c0-5.4-4.4-9.7-9.7-9.7c-3.2,0-6.1,1.6-7.8,4 c-2.5-4.5-7.3-7.6-12.8-7.6c-3.4,0-6.4,1.1-8.9,3.1c-2.4-4.7-7.3-7.9-13-7.9c-5.6,0-10.5,3.2-12.9,7.8c-1.3-0.3-2.7-0.6-4.1-0.6 C12.1,29.1,5,36.1,5,44.9c0,6,3.4,11.3,8.3,13.9c-0.2,1.3-0.2,2.6,0.1,3.9c1.2,5.3,6.5,8.6,11.8,7.4c0.3-0.1,0.6-0.1,0.8-0.2 c2.9,6,9.6,9.5,16.4,8c5.5-1.3,9.6-5.5,10.9-10.6c2.8,1.3,6.1,1.7,9.4,1c1.8-0.4,3.4-1.1,4.8-2.1c3,5.7,9.6,9,16.2,7.5 C91.5,71.9,96.4,64,94.6,56.2z" fill="#afecf6" transform="translate(-164.28818769352517, 68.48581897221425) scale(0.61) translate(-36, -24)"></path>
  <animateTransform attributeName="transform" type="translate" keyTimes="0;1" repeatCount="indefinite" dur="5.5555555555555545s" values="0;256"></animateTransform>
</g><g transform="translate(196.143 0)">
<path d="M85.3,55.6c0.3-1.1,0.5-2.2,0.6-3.4c0.5-8.5-6-15.7-14.5-16.2c-2.1-0.1-4.2,0.2-6,0.9c-1.5-8.9-9-16-18.4-16.5 C36.1,19.7,26.8,28,26.2,38.9c-0.1,1.1,0,2.3,0.1,3.3c-6.3,0.1-11.6,5-11.9,11.4c0,0.8,0,1.5,0.1,2.2c-0.3,0-0.5-0.1-0.8-0.1 C9.2,55.6,5.3,59,5,63.6s3.2,8.4,7.8,8.7c0.8,0,1.5,0,2.2-0.2c2.5,2.9,8,5.1,14.6,5.5c3.7,0.2,7.2-0.2,10-1.1 c1.7,1.8,4.3,3.1,7.3,3.2c4,0.2,7.5-1.6,9.3-4.3c2.1,1,4.6,1.7,7.4,1.9c4.5,0.3,8.6-1,11.1-3c2,1.7,4.6,2.8,7.6,3 C89,77.6,94.6,73,95,67C95.3,61.5,91.1,56.7,85.3,55.6z" fill="#afecf6" transform="translate(-276.3415846364116, 13.152851456612268) scale(0.61) translate(-36, -24)"></path>
  <animateTransform attributeName="transform" type="translate" keyTimes="0;1" repeatCount="indefinite" dur="5.5555555555555545s" values="0;256"></animateTransform>
</g><g transform="translate(196.143 0)">
<path d="M85.3,55.6c0.3-1.1,0.5-2.2,0.6-3.4c0.5-8.5-6-15.7-14.5-16.2c-2.1-0.1-4.2,0.2-6,0.9c-1.5-8.9-9-16-18.4-16.5 C36.1,19.7,26.8,28,26.2,38.9c-0.1,1.1,0,2.3,0.1,3.3c-6.3,0.1-11.6,5-11.9,11.4c0,0.8,0,1.5,0.1,2.2c-0.3,0-0.5-0.1-0.8-0.1 C9.2,55.6,5.3,59,5,63.6s3.2,8.4,7.8,8.7c0.8,0,1.5,0,2.2-0.2c2.5,2.9,8,5.1,14.6,5.5c3.7,0.2,7.2-0.2,10-1.1 c1.7,1.8,4.3,3.1,7.3,3.2c4,0.2,7.5-1.6,9.3-4.3c2.1,1,4.6,1.7,7.4,1.9c4.5,0.3,8.6-1,11.1-3c2,1.7,4.6,2.8,7.6,3 C89,77.6,94.6,73,95,67C95.3,61.5,91.1,56.7,85.3,55.6z" fill="#afecf6" transform="translate(-276.3415846364116, 269.15285145661227) scale(0.61) translate(-36, -24)"></path>
  <animateTransform attributeName="transform" type="translate" keyTimes="0;1" repeatCount="indefinite" dur="5.5555555555555545s" values="0;256"></animateTransform>
</g><g transform="translate(196.143 0)">
<path d="M85.3,55.6c0.3-1.1,0.5-2.2,0.6-3.4c0.5-8.5-6-15.7-14.5-16.2c-2.1-0.1-4.2,0.2-6,0.9c-1.5-8.9-9-16-18.4-16.5 C36.1,19.7,26.8,28,26.2,38.9c-0.1,1.1,0,2.3,0.1,3.3c-6.3,0.1-11.6,5-11.9,11.4c0,0.8,0,1.5,0.1,2.2c-0.3,0-0.5-0.1-0.8-0.1 C9.2,55.6,5.3,59,5,63.6s3.2,8.4,7.8,8.7c0.8,0,1.5,0,2.2-0.2c2.5,2.9,8,5.1,14.6,5.5c3.7,0.2,7.2-0.2,10-1.1 c1.7,1.8,4.3,3.1,7.3,3.2c4,0.2,7.5-1.6,9.3-4.3c2.1,1,4.6,1.7,7.4,1.9c4.5,0.3,8.6-1,11.1-3c2,1.7,4.6,2.8,7.6,3 C89,77.6,94.6,73,95,67C95.3,61.5,91.1,56.7,85.3,55.6z" fill="#afecf6" transform="translate(235.6584153635884, 13.152851456612268) scale(0.61) translate(-36, -24)"></path>
  <animateTransform attributeName="transform" type="translate" keyTimes="0;1" repeatCount="indefinite" dur="5.5555555555555545s" values="0;256"></animateTransform>
</g><g transform="translate(196.143 0)">
<path d="M85.3,55.6c0.3-1.1,0.5-2.2,0.6-3.4c0.5-8.5-6-15.7-14.5-16.2c-2.1-0.1-4.2,0.2-6,0.9c-1.5-8.9-9-16-18.4-16.5 C36.1,19.7,26.8,28,26.2,38.9c-0.1,1.1,0,2.3,0.1,3.3c-6.3,0.1-11.6,5-11.9,11.4c0,0.8,0,1.5,0.1,2.2c-0.3,0-0.5-0.1-0.8-0.1 C9.2,55.6,5.3,59,5,63.6s3.2,8.4,7.8,8.7c0.8,0,1.5,0,2.2-0.2c2.5,2.9,8,5.1,14.6,5.5c3.7,0.2,7.2-0.2,10-1.1 c1.7,1.8,4.3,3.1,7.3,3.2c4,0.2,7.5-1.6,9.3-4.3c2.1,1,4.6,1.7,7.4,1.9c4.5,0.3,8.6-1,11.1-3c2,1.7,4.6,2.8,7.6,3 C89,77.6,94.6,73,95,67C95.3,61.5,91.1,56.7,85.3,55.6z" fill="#afecf6" transform="translate(235.6584153635884, 269.15285145661227) scale(0.61) translate(-36, -24)"></path>
  <animateTransform attributeName="transform" type="translate" keyTimes="0;1" repeatCount="indefinite" dur="5.5555555555555545s" values="0;256"></animateTransform>
</g><g transform="translate(196.143 0)">
<path d="M85.3,55.6c0.3-1.1,0.5-2.2,0.6-3.4c0.5-8.5-6-15.7-14.5-16.2c-2.1-0.1-4.2,0.2-6,0.9c-1.5-8.9-9-16-18.4-16.5 C36.1,19.7,26.8,28,26.2,38.9c-0.1,1.1,0,2.3,0.1,3.3c-6.3,0.1-11.6,5-11.9,11.4c0,0.8,0,1.5,0.1,2.2c-0.3,0-0.5-0.1-0.8-0.1 C9.2,55.6,5.3,59,5,63.6s3.2,8.4,7.8,8.7c0.8,0,1.5,0,2.2-0.2c2.5,2.9,8,5.1,14.6,5.5c3.7,0.2,7.2-0.2,10-1.1 c1.7,1.8,4.3,3.1,7.3,3.2c4,0.2,7.5-1.6,9.3-4.3c2.1,1,4.6,1.7,7.4,1.9c4.5,0.3,8.6-1,11.1-3c2,1.7,4.6,2.8,7.6,3 C89,77.6,94.6,73,95,67C95.3,61.5,91.1,56.7,85.3,55.6z" fill="#afecf6" transform="translate(-20.341584636411596, 13.152851456612268) scale(0.61) translate(-36, -24)"></path>
  <animateTransform attributeName="transform" type="translate" keyTimes="0;1" repeatCount="indefinite" dur="5.5555555555555545s" values="0;256"></animateTransform>
</g><g transform="translate(196.143 0)">
<path d="M85.3,55.6c0.3-1.1,0.5-2.2,0.6-3.4c0.5-8.5-6-15.7-14.5-16.2c-2.1-0.1-4.2,0.2-6,0.9c-1.5-8.9-9-16-18.4-16.5 C36.1,19.7,26.8,28,26.2,38.9c-0.1,1.1,0,2.3,0.1,3.3c-6.3,0.1-11.6,5-11.9,11.4c0,0.8,0,1.5,0.1,2.2c-0.3,0-0.5-0.1-0.8-0.1 C9.2,55.6,5.3,59,5,63.6s3.2,8.4,7.8,8.7c0.8,0,1.5,0,2.2-0.2c2.5,2.9,8,5.1,14.6,5.5c3.7,0.2,7.2-0.2,10-1.1 c1.7,1.8,4.3,3.1,7.3,3.2c4,0.2,7.5-1.6,9.3-4.3c2.1,1,4.6,1.7,7.4,1.9c4.5,0.3,8.6-1,11.1-3c2,1.7,4.6,2.8,7.6,3 C89,77.6,94.6,73,95,67C95.3,61.5,91.1,56.7,85.3,55.6z" fill="#afecf6" transform="translate(-20.341584636411596, 269.15285145661227) scale(0.61) translate(-36, -24)"></path>
  <animateTransform attributeName="transform" type="translate" keyTimes="0;1" repeatCount="indefinite" dur="5.5555555555555545s" values="0;256"></animateTransform>
</g><g transform="translate(196.143 0)">
<path d="M95,62.4c-0.5-5.9-5.7-10.3-11.9-10.5c0-0.6,0-1.2,0-1.8c-0.7-7.6-7.9-13.1-16.1-12.4c-0.9,0.1-1.9,0.3-2.7,0.5 c0-0.1,0-0.2,0-0.2c-1-10.9-10.7-19-21.6-18c-9.8,0.9-17.3,8.8-18,18.3C12.8,39.5,4.1,49.2,5.1,60C6.1,71,16.5,79,28.4,77.9 c3.4-0.3,6.4-1.3,9.2-2.8c5,3.7,12.4,5.7,20.5,4.9c6.9-0.6,13.1-3.2,17.3-6.8c2.3,1.4,5.2,2.2,8.2,1.9C90.4,74.4,95.5,68.8,95,62.4z" fill="#afecf6" transform="translate(44.37014136515512, 46.58023261161446) scale(0.61) translate(-36, -24)"></path>
  <animateTransform attributeName="transform" type="translate" keyTimes="0;1" repeatCount="indefinite" dur="5.5555555555555545s" values="0;256"></animateTransform>
</g><g transform="translate(196.143 0)">
<path d="M95,62.4c-0.5-5.9-5.7-10.3-11.9-10.5c0-0.6,0-1.2,0-1.8c-0.7-7.6-7.9-13.1-16.1-12.4c-0.9,0.1-1.9,0.3-2.7,0.5 c0-0.1,0-0.2,0-0.2c-1-10.9-10.7-19-21.6-18c-9.8,0.9-17.3,8.8-18,18.3C12.8,39.5,4.1,49.2,5.1,60C6.1,71,16.5,79,28.4,77.9 c3.4-0.3,6.4-1.3,9.2-2.8c5,3.7,12.4,5.7,20.5,4.9c6.9-0.6,13.1-3.2,17.3-6.8c2.3,1.4,5.2,2.2,8.2,1.9C90.4,74.4,95.5,68.8,95,62.4z" fill="#afecf6" transform="translate(44.37014136515512, 302.58023261161446) scale(0.61) translate(-36, -24)"></path>
  <animateTransform attributeName="transform" type="translate" keyTimes="0;1" repeatCount="indefinite" dur="5.5555555555555545s" values="0;256"></animateTransform>
</g><g transform="translate(196.143 0)">
<path d="M95,62.4c-0.5-5.9-5.7-10.3-11.9-10.5c0-0.6,0-1.2,0-1.8c-0.7-7.6-7.9-13.1-16.1-12.4c-0.9,0.1-1.9,0.3-2.7,0.5 c0-0.1,0-0.2,0-0.2c-1-10.9-10.7-19-21.6-18c-9.8,0.9-17.3,8.8-18,18.3C12.8,39.5,4.1,49.2,5.1,60C6.1,71,16.5,79,28.4,77.9 c3.4-0.3,6.4-1.3,9.2-2.8c5,3.7,12.4,5.7,20.5,4.9c6.9-0.6,13.1-3.2,17.3-6.8c2.3,1.4,5.2,2.2,8.2,1.9C90.4,74.4,95.5,68.8,95,62.4z" fill="#afecf6" transform="translate(-211.62985863484488, 46.58023261161446) scale(0.61) translate(-36, -24)"></path>
  <animateTransform attributeName="transform" type="translate" keyTimes="0;1" repeatCount="indefinite" dur="5.5555555555555545s" values="0;256"></animateTransform>
</g><g transform="translate(196.143 0)">
<path d="M95,62.4c-0.5-5.9-5.7-10.3-11.9-10.5c0-0.6,0-1.2,0-1.8c-0.7-7.6-7.9-13.1-16.1-12.4c-0.9,0.1-1.9,0.3-2.7,0.5 c0-0.1,0-0.2,0-0.2c-1-10.9-10.7-19-21.6-18c-9.8,0.9-17.3,8.8-18,18.3C12.8,39.5,4.1,49.2,5.1,60C6.1,71,16.5,79,28.4,77.9 c3.4-0.3,6.4-1.3,9.2-2.8c5,3.7,12.4,5.7,20.5,4.9c6.9-0.6,13.1-3.2,17.3-6.8c2.3,1.4,5.2,2.2,8.2,1.9C90.4,74.4,95.5,68.8,95,62.4z" fill="#afecf6" transform="translate(-211.62985863484488, 302.58023261161446) scale(0.61) translate(-36, -24)"></path>
  <animateTransform attributeName="transform" type="translate" keyTimes="0;1" repeatCount="indefinite" dur="5.5555555555555545s" values="0;256"></animateTransform>
</g><g transform="translate(196.143 0)">
<path d="M95,62.1c0-7.9-5.6-14.5-13.1-15.9C82,45.4,82,44.7,82,44c0-12.3-10-22.3-22.3-22.3c-9.5,0-17.7,6-20.8,14.4 c-1.2-0.3-2.4-0.5-3.7-0.5c-7.6,0-13.8,5.9-14.3,13.3c-0.9-0.2-1.9-0.3-2.8-0.3c-7.2,0-13,5.8-13,13c0,4.8,2.6,9,6.5,11.2 c0,0.1,0,0.1,0,0.2c0,4.7,3.8,8.5,8.5,8.5c2.7,0,5.1-1.3,6.7-3.2c0.1,0,0.2,0,0.3,0h10.4c2.4,2,5.4,3.2,8.7,3.2s6.4-1.2,8.7-3.2h0.2 c3.3,3.8,8.2,6.2,13.6,6.2c5.6,0,10.7-2.6,14-6.6C89.6,76.2,95,69.8,95,62.1z" fill="#afecf6" transform="translate(76.45224937496181, 187.7101394323223) scale(0.61) translate(-36, -24)"></path>
  <animateTransform attributeName="transform" type="translate" keyTimes="0;1" repeatCount="indefinite" dur="5.5555555555555545s" values="0;256"></animateTransform>
</g><g transform="translate(196.143 0)">
<path d="M95,62.1c0-7.9-5.6-14.5-13.1-15.9C82,45.4,82,44.7,82,44c0-12.3-10-22.3-22.3-22.3c-9.5,0-17.7,6-20.8,14.4 c-1.2-0.3-2.4-0.5-3.7-0.5c-7.6,0-13.8,5.9-14.3,13.3c-0.9-0.2-1.9-0.3-2.8-0.3c-7.2,0-13,5.8-13,13c0,4.8,2.6,9,6.5,11.2 c0,0.1,0,0.1,0,0.2c0,4.7,3.8,8.5,8.5,8.5c2.7,0,5.1-1.3,6.7-3.2c0.1,0,0.2,0,0.3,0h10.4c2.4,2,5.4,3.2,8.7,3.2s6.4-1.2,8.7-3.2h0.2 c3.3,3.8,8.2,6.2,13.6,6.2c5.6,0,10.7-2.6,14-6.6C89.6,76.2,95,69.8,95,62.1z" fill="#afecf6" transform="translate(-179.5477506250382, 187.7101394323223) scale(0.61) translate(-36, -24)"></path>
  <animateTransform attributeName="transform" type="translate" keyTimes="0;1" repeatCount="indefinite" dur="5.5555555555555545s" values="0;256"></animateTransform>
</g><g transform="translate(176.19 0)">
<path d="M94.6,56.2c-1-4.2-3.7-7.6-7.2-9.5c1.6-1.7,2.7-4.1,2.7-6.7c0-5.4-4.4-9.7-9.7-9.7c-3.2,0-6.1,1.6-7.8,4 c-2.5-4.5-7.3-7.6-12.8-7.6c-3.4,0-6.4,1.1-8.9,3.1c-2.4-4.7-7.3-7.9-13-7.9c-5.6,0-10.5,3.2-12.9,7.8c-1.3-0.3-2.7-0.6-4.1-0.6 C12.1,29.1,5,36.1,5,44.9c0,6,3.4,11.3,8.3,13.9c-0.2,1.3-0.2,2.6,0.1,3.9c1.2,5.3,6.5,8.6,11.8,7.4c0.3-0.1,0.6-0.1,0.8-0.2 c2.9,6,9.6,9.5,16.4,8c5.5-1.3,9.6-5.5,10.9-10.6c2.8,1.3,6.1,1.7,9.4,1c1.8-0.4,3.4-1.1,4.8-2.1c3,5.7,9.6,9,16.2,7.5 C91.5,71.9,96.4,64,94.6,56.2z" fill="#ffffff" transform="translate(105.43867858789571, 209.1145939644083) scale(0.7116666666666667) translate(-36, -24)"></path>
  <animateTransform attributeName="transform" type="translate" keyTimes="0;1" repeatCount="indefinite" dur="4.166666666666666s" values="0;256"></animateTransform>
</g><g transform="translate(176.19 0)">
<path d="M94.6,56.2c-1-4.2-3.7-7.6-7.2-9.5c1.6-1.7,2.7-4.1,2.7-6.7c0-5.4-4.4-9.7-9.7-9.7c-3.2,0-6.1,1.6-7.8,4 c-2.5-4.5-7.3-7.6-12.8-7.6c-3.4,0-6.4,1.1-8.9,3.1c-2.4-4.7-7.3-7.9-13-7.9c-5.6,0-10.5,3.2-12.9,7.8c-1.3-0.3-2.7-0.6-4.1-0.6 C12.1,29.1,5,36.1,5,44.9c0,6,3.4,11.3,8.3,13.9c-0.2,1.3-0.2,2.6,0.1,3.9c1.2,5.3,6.5,8.6,11.8,7.4c0.3-0.1,0.6-0.1,0.8-0.2 c2.9,6,9.6,9.5,16.4,8c5.5-1.3,9.6-5.5,10.9-10.6c2.8,1.3,6.1,1.7,9.4,1c1.8-0.4,3.4-1.1,4.8-2.1c3,5.7,9.6,9,16.2,7.5 C91.5,71.9,96.4,64,94.6,56.2z" fill="#ffffff" transform="translate(105.43867858789571, -46.8854060355917) scale(0.7116666666666667) translate(-36, -24)"></path>
  <animateTransform attributeName="transform" type="translate" keyTimes="0;1" repeatCount="indefinite" dur="4.166666666666666s" values="0;256"></animateTransform>
</g><g transform="translate(176.19 0)">
<path d="M94.6,56.2c-1-4.2-3.7-7.6-7.2-9.5c1.6-1.7,2.7-4.1,2.7-6.7c0-5.4-4.4-9.7-9.7-9.7c-3.2,0-6.1,1.6-7.8,4 c-2.5-4.5-7.3-7.6-12.8-7.6c-3.4,0-6.4,1.1-8.9,3.1c-2.4-4.7-7.3-7.9-13-7.9c-5.6,0-10.5,3.2-12.9,7.8c-1.3-0.3-2.7-0.6-4.1-0.6 C12.1,29.1,5,36.1,5,44.9c0,6,3.4,11.3,8.3,13.9c-0.2,1.3-0.2,2.6,0.1,3.9c1.2,5.3,6.5,8.6,11.8,7.4c0.3-0.1,0.6-0.1,0.8-0.2 c2.9,6,9.6,9.5,16.4,8c5.5-1.3,9.6-5.5,10.9-10.6c2.8,1.3,6.1,1.7,9.4,1c1.8-0.4,3.4-1.1,4.8-2.1c3,5.7,9.6,9,16.2,7.5 C91.5,71.9,96.4,64,94.6,56.2z" fill="#ffffff" transform="translate(-150.5613214121043, 209.1145939644083) scale(0.7116666666666667) translate(-36, -24)"></path>
  <animateTransform attributeName="transform" type="translate" keyTimes="0;1" repeatCount="indefinite" dur="4.166666666666666s" values="0;256"></animateTransform>
</g><g transform="translate(176.19 0)">
<path d="M94.6,56.2c-1-4.2-3.7-7.6-7.2-9.5c1.6-1.7,2.7-4.1,2.7-6.7c0-5.4-4.4-9.7-9.7-9.7c-3.2,0-6.1,1.6-7.8,4 c-2.5-4.5-7.3-7.6-12.8-7.6c-3.4,0-6.4,1.1-8.9,3.1c-2.4-4.7-7.3-7.9-13-7.9c-5.6,0-10.5,3.2-12.9,7.8c-1.3-0.3-2.7-0.6-4.1-0.6 C12.1,29.1,5,36.1,5,44.9c0,6,3.4,11.3,8.3,13.9c-0.2,1.3-0.2,2.6,0.1,3.9c1.2,5.3,6.5,8.6,11.8,7.4c0.3-0.1,0.6-0.1,0.8-0.2 c2.9,6,9.6,9.5,16.4,8c5.5-1.3,9.6-5.5,10.9-10.6c2.8,1.3,6.1,1.7,9.4,1c1.8-0.4,3.4-1.1,4.8-2.1c3,5.7,9.6,9,16.2,7.5 C91.5,71.9,96.4,64,94.6,56.2z" fill="#ffffff" transform="translate(-150.5613214121043, -46.8854060355917) scale(0.7116666666666667) translate(-36, -24)"></path>
  <animateTransform attributeName="transform" type="translate" keyTimes="0;1" repeatCount="indefinite" dur="4.166666666666666s" values="0;256"></animateTransform>
</g><g transform="translate(176.19 0)">
<path d="M85.3,55.6c0.3-1.1,0.5-2.2,0.6-3.4c0.5-8.5-6-15.7-14.5-16.2c-2.1-0.1-4.2,0.2-6,0.9c-1.5-8.9-9-16-18.4-16.5 C36.1,19.7,26.8,28,26.2,38.9c-0.1,1.1,0,2.3,0.1,3.3c-6.3,0.1-11.6,5-11.9,11.4c0,0.8,0,1.5,0.1,2.2c-0.3,0-0.5-0.1-0.8-0.1 C9.2,55.6,5.3,59,5,63.6s3.2,8.4,7.8,8.7c0.8,0,1.5,0,2.2-0.2c2.5,2.9,8,5.1,14.6,5.5c3.7,0.2,7.2-0.2,10-1.1 c1.7,1.8,4.3,3.1,7.3,3.2c4,0.2,7.5-1.6,9.3-4.3c2.1,1,4.6,1.7,7.4,1.9c4.5,0.3,8.6-1,11.1-3c2,1.7,4.6,2.8,7.6,3 C89,77.6,94.6,73,95,67C95.3,61.5,91.1,56.7,85.3,55.6z" fill="#ffffff" transform="translate(84.92532116251618, 231.37296708606289) scale(0.7116666666666667) translate(-36, -24)"></path>
  <animateTransform attributeName="transform" type="translate" keyTimes="0;1" repeatCount="indefinite" dur="4.166666666666666s" values="0;256"></animateTransform>
</g><g transform="translate(176.19 0)">
<path d="M85.3,55.6c0.3-1.1,0.5-2.2,0.6-3.4c0.5-8.5-6-15.7-14.5-16.2c-2.1-0.1-4.2,0.2-6,0.9c-1.5-8.9-9-16-18.4-16.5 C36.1,19.7,26.8,28,26.2,38.9c-0.1,1.1,0,2.3,0.1,3.3c-6.3,0.1-11.6,5-11.9,11.4c0,0.8,0,1.5,0.1,2.2c-0.3,0-0.5-0.1-0.8-0.1 C9.2,55.6,5.3,59,5,63.6s3.2,8.4,7.8,8.7c0.8,0,1.5,0,2.2-0.2c2.5,2.9,8,5.1,14.6,5.5c3.7,0.2,7.2-0.2,10-1.1 c1.7,1.8,4.3,3.1,7.3,3.2c4,0.2,7.5-1.6,9.3-4.3c2.1,1,4.6,1.7,7.4,1.9c4.5,0.3,8.6-1,11.1-3c2,1.7,4.6,2.8,7.6,3 C89,77.6,94.6,73,95,67C95.3,61.5,91.1,56.7,85.3,55.6z" fill="#ffffff" transform="translate(84.92532116251618, -24.627032913937114) scale(0.7116666666666667) translate(-36, -24)"></path>
  <animateTransform attributeName="transform" type="translate" keyTimes="0;1" repeatCount="indefinite" dur="4.166666666666666s" values="0;256"></animateTransform>
</g><g transform="translate(176.19 0)">
<path d="M85.3,55.6c0.3-1.1,0.5-2.2,0.6-3.4c0.5-8.5-6-15.7-14.5-16.2c-2.1-0.1-4.2,0.2-6,0.9c-1.5-8.9-9-16-18.4-16.5 C36.1,19.7,26.8,28,26.2,38.9c-0.1,1.1,0,2.3,0.1,3.3c-6.3,0.1-11.6,5-11.9,11.4c0,0.8,0,1.5,0.1,2.2c-0.3,0-0.5-0.1-0.8-0.1 C9.2,55.6,5.3,59,5,63.6s3.2,8.4,7.8,8.7c0.8,0,1.5,0,2.2-0.2c2.5,2.9,8,5.1,14.6,5.5c3.7,0.2,7.2-0.2,10-1.1 c1.7,1.8,4.3,3.1,7.3,3.2c4,0.2,7.5-1.6,9.3-4.3c2.1,1,4.6,1.7,7.4,1.9c4.5,0.3,8.6-1,11.1-3c2,1.7,4.6,2.8,7.6,3 C89,77.6,94.6,73,95,67C95.3,61.5,91.1,56.7,85.3,55.6z" fill="#ffffff" transform="translate(-171.07467883748382, 231.37296708606289) scale(0.7116666666666667) translate(-36, -24)"></path>
  <animateTransform attributeName="transform" type="translate" keyTimes="0;1" repeatCount="indefinite" dur="4.166666666666666s" values="0;256"></animateTransform>
</g><g transform="translate(176.19 0)">
<path d="M85.3,55.6c0.3-1.1,0.5-2.2,0.6-3.4c0.5-8.5-6-15.7-14.5-16.2c-2.1-0.1-4.2,0.2-6,0.9c-1.5-8.9-9-16-18.4-16.5 C36.1,19.7,26.8,28,26.2,38.9c-0.1,1.1,0,2.3,0.1,3.3c-6.3,0.1-11.6,5-11.9,11.4c0,0.8,0,1.5,0.1,2.2c-0.3,0-0.5-0.1-0.8-0.1 C9.2,55.6,5.3,59,5,63.6s3.2,8.4,7.8,8.7c0.8,0,1.5,0,2.2-0.2c2.5,2.9,8,5.1,14.6,5.5c3.7,0.2,7.2-0.2,10-1.1 c1.7,1.8,4.3,3.1,7.3,3.2c4,0.2,7.5-1.6,9.3-4.3c2.1,1,4.6,1.7,7.4,1.9c4.5,0.3,8.6-1,11.1-3c2,1.7,4.6,2.8,7.6,3 C89,77.6,94.6,73,95,67C95.3,61.5,91.1,56.7,85.3,55.6z" fill="#ffffff" transform="translate(-171.07467883748382, -24.627032913937114) scale(0.7116666666666667) translate(-36, -24)"></path>
  <animateTransform attributeName="transform" type="translate" keyTimes="0;1" repeatCount="indefinite" dur="4.166666666666666s" values="0;256"></animateTransform>
</g><g transform="translate(176.19 0)">
<path d="M95,62.4c-0.5-5.9-5.7-10.3-11.9-10.5c0-0.6,0-1.2,0-1.8c-0.7-7.6-7.9-13.1-16.1-12.4c-0.9,0.1-1.9,0.3-2.7,0.5 c0-0.1,0-0.2,0-0.2c-1-10.9-10.7-19-21.6-18c-9.8,0.9-17.3,8.8-18,18.3C12.8,39.5,4.1,49.2,5.1,60C6.1,71,16.5,79,28.4,77.9 c3.4-0.3,6.4-1.3,9.2-2.8c5,3.7,12.4,5.7,20.5,4.9c6.9-0.6,13.1-3.2,17.3-6.8c2.3,1.4,5.2,2.2,8.2,1.9C90.4,74.4,95.5,68.8,95,62.4z" fill="#ffffff" transform="translate(103.27434789667552, 235.34934750219628) scale(0.7116666666666667) translate(-36, -24)"></path>
  <animateTransform attributeName="transform" type="translate" keyTimes="0;1" repeatCount="indefinite" dur="4.166666666666666s" values="0;256"></animateTransform>
</g><g transform="translate(176.19 0)">
<path d="M95,62.4c-0.5-5.9-5.7-10.3-11.9-10.5c0-0.6,0-1.2,0-1.8c-0.7-7.6-7.9-13.1-16.1-12.4c-0.9,0.1-1.9,0.3-2.7,0.5 c0-0.1,0-0.2,0-0.2c-1-10.9-10.7-19-21.6-18c-9.8,0.9-17.3,8.8-18,18.3C12.8,39.5,4.1,49.2,5.1,60C6.1,71,16.5,79,28.4,77.9 c3.4-0.3,6.4-1.3,9.2-2.8c5,3.7,12.4,5.7,20.5,4.9c6.9-0.6,13.1-3.2,17.3-6.8c2.3,1.4,5.2,2.2,8.2,1.9C90.4,74.4,95.5,68.8,95,62.4z" fill="#ffffff" transform="translate(103.27434789667552, -20.65065249780372) scale(0.7116666666666667) translate(-36, -24)"></path>
  <animateTransform attributeName="transform" type="translate" keyTimes="0;1" repeatCount="indefinite" dur="4.166666666666666s" values="0;256"></animateTransform>
</g><g transform="translate(176.19 0)">
<path d="M95,62.4c-0.5-5.9-5.7-10.3-11.9-10.5c0-0.6,0-1.2,0-1.8c-0.7-7.6-7.9-13.1-16.1-12.4c-0.9,0.1-1.9,0.3-2.7,0.5 c0-0.1,0-0.2,0-0.2c-1-10.9-10.7-19-21.6-18c-9.8,0.9-17.3,8.8-18,18.3C12.8,39.5,4.1,49.2,5.1,60C6.1,71,16.5,79,28.4,77.9 c3.4-0.3,6.4-1.3,9.2-2.8c5,3.7,12.4,5.7,20.5,4.9c6.9-0.6,13.1-3.2,17.3-6.8c2.3,1.4,5.2,2.2,8.2,1.9C90.4,74.4,95.5,68.8,95,62.4z" fill="#ffffff" transform="translate(-152.72565210332448, 235.34934750219628) scale(0.7116666666666667) translate(-36, -24)"></path>
  <animateTransform attributeName="transform" type="translate" keyTimes="0;1" repeatCount="indefinite" dur="4.166666666666666s" values="0;256"></animateTransform>
</g><g transform="translate(176.19 0)">
<path d="M95,62.4c-0.5-5.9-5.7-10.3-11.9-10.5c0-0.6,0-1.2,0-1.8c-0.7-7.6-7.9-13.1-16.1-12.4c-0.9,0.1-1.9,0.3-2.7,0.5 c0-0.1,0-0.2,0-0.2c-1-10.9-10.7-19-21.6-18c-9.8,0.9-17.3,8.8-18,18.3C12.8,39.5,4.1,49.2,5.1,60C6.1,71,16.5,79,28.4,77.9 c3.4-0.3,6.4-1.3,9.2-2.8c5,3.7,12.4,5.7,20.5,4.9c6.9-0.6,13.1-3.2,17.3-6.8c2.3,1.4,5.2,2.2,8.2,1.9C90.4,74.4,95.5,68.8,95,62.4z" fill="#ffffff" transform="translate(-152.72565210332448, -20.65065249780372) scale(0.7116666666666667) translate(-36, -24)"></path>
  <animateTransform attributeName="transform" type="translate" keyTimes="0;1" repeatCount="indefinite" dur="4.166666666666666s" values="0;256"></animateTransform>
</g></g>
  </pattern>
</defs>
<rect x="0" y="0" width="1084" height="322" fill="url(#pid-0.39848199502375414)"></rect>
</svg>